<?xml version="1.0" encoding="utf-8"?>
<!-- Generator: Adobe Illustrator 20.1.0, SVG Export Plug-In . SVG Version: 6.00 Build 0)  -->
<svg version="1.1" id="Layer_1" xmlns="http://www.w3.org/2000/svg" xmlns:xlink="http://www.w3.org/1999/xlink" x="0px" y="0px"
	 viewBox="0 0 398.5 93.4" enable-background="new 0 0 398.5 93.4" xml:space="preserve">
<g fill="#333333">
	<g>
		<path d="M0.2,0.1h8.7h8.7h8.7H35c0,0,1.8-0.2,4.5,0c2.7,0.2,6.3,0.6,9.9,1.8s7.2,3.2,9.9,6.3c2.7,3.2,4.5,7.6,4.5,13.6
			c0,6-1.5,10.5-3.9,13.7c-2.4,3.2-5.6,5.3-9,6.6c-3.4,1.3-6.9,1.8-9.9,2c-3,0.2-5.4,0.1-6.6,0.1l-8.6,0l-8.6,0l-8.6,0l-8.6,0v-2.7
			v-2.7v-2.7v-2.7h8.9h8.9h8.9h8.9c0,0,1,0,2.4-0.1c1.5-0.1,3.4-0.4,5.4-1.1c2-0.7,3.9-1.7,5.4-3.4s2.4-3.9,2.4-7
			c0-3-0.7-5.2-1.7-6.8c-1.1-1.6-2.6-2.6-4.2-3.3c-1.7-0.6-3.5-0.9-5.2-1c-1.8-0.1-3.4-0.1-4.8-0.1c-1.4,0-4.2,0-7.8,0
			s-7.7,0-11.8,0s-7.9,0-10.8,0s-4.7,0-4.7,0l0-2.7l0-2.7l0-2.7L0.2,0.1z"/>
		<path d="M59.1,52.2c1.3,0.8,2.6,1.7,3.8,2.9c1.2,1.1,2.3,2.4,3.2,3.9s1.7,3.2,2.2,5.1c0.5,1.9,0.8,4,0.8,6.3
			c0,6-1.5,10.5-3.9,13.8c-2.4,3.3-5.6,5.4-9,6.7c-3.4,1.3-6.9,1.9-9.9,2.2s-5.4,0.2-6.6,0.2l-9.9,0l-9.9,0l-9.9,0l-9.9,0v-2.7v-2.7
			v-2.7v-2.7l10.2,0l10.2,0l10.2,0l10.2,0c0,0,1,0,2.5-0.2c1.5-0.2,3.5-0.5,5.4-1.3c2-0.7,4-1.9,5.5-3.6c1.5-1.7,2.5-4,2.5-7.1
			c0-2.1-0.3-4.1-0.9-6c-0.6-1.8-1.4-3.6-2.4-5.1s-2.1-2.9-3.4-4.1c-1.2-1.2-2.5-2.2-3.8-3.1h3.3h3.3h3.3H59.1z"/>
	</g>
	<path d="M100.2,52.2h3.7h3.7h3.7h3.7c0,1.7,0,3.5,0,5.5c0,1.9,0,3.9,0,5.8c0,1.9,0,3.8,0,5.5s0,3.2,0,4.4c0,1.7,0.3,3.2,0.7,4.4
		c0.5,1.2,1.1,2.1,1.9,2.8c0.8,0.7,1.7,1.2,2.7,1.5c1,0.3,2,0.5,3,0.5c1,0,3.9,0,7.6,0s8.3,0,12.9,0s9.2,0,12.9,0c3.7,0,6.4,0,7.4,0
		l0,2.7l0,2.7l0,2.7l0,2.7c-1,0-4.2,0-8.6,0s-9.9,0-15.5,0s-11.2,0-15.7,0c-4.5,0-8,0-9.3,0c-1.3,0-2.8-0.2-4.5-0.7
		c-1.6-0.5-3.3-1.4-4.9-2.6c-1.5-1.3-2.9-3-3.9-5.2c-1-2.3-1.6-5-1.6-8.5c0-3.8,0-7.2,0-10.2c0-3,0-5.5,0-7.6s0-3.6,0-4.7
		S100.2,52.2,100.2,52.2z"/>
	<path d="M164.2,33.5c-0.9,0-3.8,0-7.6,0c-3.8,0-8.6,0-13.3,0c-4.8,0-9.6,0-13.4,0c-3.9,0-6.8,0-7.8,0c-1,0-2,0-2.8-0.1
		c-0.9-0.1-1.6-0.3-2.2-0.7s-1.1-0.8-1.5-1.5s-0.5-1.6-0.5-2.8c0-0.2,0-1,0-2.1c0-1.1,0-2.6,0-4s0-2.9,0-4c0-1.1,0-2,0-2.2
		c0-1.2,0.2-2.2,0.5-2.9s0.8-1.2,1.3-1.6c0.6-0.3,1.3-0.5,2.1-0.7s1.8-0.1,2.8-0.1c1,0,4,0,7.8,0s8.7,0,13.5,0s9.6,0,13.4,0
		s6.7,0,7.6,0l0-2.7l0-2.7l0-2.7l0-2.7c-1,0-4.5,0-9.2,0s-10.6,0-16.3,0s-11.4,0-15.6,0s-7,0-7,0s-1-0.1-2.5,0.1s-3.5,0.6-5.5,1.5
		c-2,0.9-4,2.4-5.5,4.7s-2.5,5.4-2.5,9.7c0,1.5,0,3,0,4.3s0,2.7,0,3.8s0,2,0,2.7s0,1.1,0,1.1c0,3.8,0.7,6.7,1.9,9
		c1.1,2.2,2.7,3.8,4.5,4.9s3.6,1.7,5.4,2c1.8,0.3,3.5,0.4,4.7,0.4c1.3,0,4.6,0,9,0c4.4,0,9.8,0,15.1,0s10.7,0,14.9,0s7.4,0,8.4,0
		l0-2.7l0-2.7l0-2.7L164.2,33.5z"/>
	<path d="M270.8,0.1c-0.6,0.6-2.3,2.6-4.6,5.4s-5.2,6.1-8.1,9.6c-2.9,3.4-5.8,6.9-8.2,9.6s-4.2,4.8-4.8,5.4
		c-1.1,1.1-2.4,1.8-3.9,2.4c-1.5,0.5-3.1,0.8-4.7,1c-1.7,0.2-3.4,0.2-5.1,0.2c-1.7,0-3.4-0.1-5-0.1c-1.6,0-2.9-0.3-3.9-0.8
		c-1-0.5-1.8-1.2-2.3-2.1c-0.5-0.8-0.9-1.7-1.1-2.7s-0.3-1.9-0.3-2.7c0-0.8,0-2.6,0-4.9s0-5,0-7.8s0-5.5,0-7.7s0-4,0-4.7h-3.7h-3.7
		h-3.7H204c0,0.8,0,3,0,6s0,6.6,0,10.4s0,7.5,0,10.5s0,5.5,0,6.5c0,0.8,0.1,1.9,0.4,3.1c0.4,1.2,1,2.4,2,3.5s2.4,2.2,4.4,2.9
		s4.6,1.2,7.9,1.2c0.6,0,2.5,0,5,0c2.5,0,5.6,0,8.6,0s5.9,0,8.1,0c2.2,0,3.7,0,3.7,0c0.8,0,1.7-0.1,2.7-0.4c1-0.3,2.1-0.7,3.3-1.4
		s2.4-1.5,3.7-2.7s2.7-2.5,4.1-4.2c0.4-0.5,2.2-2.7,4.8-5.8c2.6-3.1,5.9-7,9.2-11.1s6.8-8.1,9.7-11.5s5.1-6,6.1-7.1h-4.3h-4.3h-4.3
		H270.8z"/>
	<path d="M256.2,58.9c-0.8-0.8-1.5-1.7-2.4-2.5c-0.9-0.8-1.8-1.5-3-2.1s-2.5-1.1-4.2-1.5s-3.7-0.6-6.2-0.6c0,0-0.4,0-1.3,0
		s-2.1,0-3.9,0c-1.8,0-4,0-6.7,0s-6,0-9.8,0c-2.7,0-5,0.5-6.9,1.3s-3.4,1.9-4.5,3.2c-1.2,1.2-2,2.6-2.5,3.9
		c-0.5,1.3-0.8,2.6-0.8,3.6c0,1,0,3.2,0,5.8c0,2.7,0,5.9,0,9.1c0,3.2,0,6.3,0,8.9s0,4.5,0,5.3l3.7,0l3.7,0l3.7,0l3.7,0
		c0-0.8,0-2.5,0-4.7c0-2.2,0-5,0-7.7c0-2.7,0-5.5,0-7.7c0-2.3,0-4.1,0-4.9c0-0.8,0.1-1.6,0.3-2.2s0.5-1.2,1-1.6
		c0.5-0.4,1.3-0.8,2.3-1c1-0.2,2.3-0.3,3.9-0.3c1.6,0,2.7,0,3.5,0c0.8,0,1.3,0,1.6,0c0.3,0,0.5,0,0.6,0s0.2,0,0.4,0
		c1.5,0,2.9,0,4.1,0.1s2.3,0.2,3.3,0.4c1,0.2,1.9,0.6,2.8,1c0.9,0.5,1.7,1.1,2.5,1.9c0.7,0.7,2.5,2.5,4.9,4.9
		c2.4,2.4,5.5,5.5,8.5,8.5c3,3,6,6.1,8.5,8.5c2.4,2.4,4.2,4.3,4.9,4.9h4.2h4.2h4.2h4.2c-1-1.1-3.5-3.7-6.6-7
		c-3.1-3.3-6.9-7.3-10.6-11.2s-7.4-7.7-10.2-10.7C258.6,61.5,256.6,59.3,256.2,58.9z"/>
	<path d="M380.4,0.1c-0.6,0.6-2.3,2.6-4.6,5.4s-5.2,6.1-8.1,9.6s-5.8,6.9-8.2,9.6s-4.2,4.8-4.8,5.4c-1.1,1.1-2.4,1.8-3.9,2.4
		c-1.5,0.5-3.1,0.8-4.7,1c-1.7,0.2-3.4,0.2-5.1,0.2c-1.7,0-3.4-0.1-5-0.1c-1.6,0-2.9-0.3-3.9-0.8c-1-0.5-1.8-1.2-2.3-2.1
		c-0.5-0.8-0.9-1.7-1.1-2.7s-0.3-1.9-0.3-2.7c0-0.8,0-2.6,0-4.9s0-5,0-7.8s0-5.5,0-7.7s0-4,0-4.7h-3.7H321h-3.7h-3.7c0,0.8,0,3,0,6
		s0,6.6,0,10.4s0,7.5,0,10.5s0,5.5,0,6.5c0,0.8,0.1,1.9,0.4,3.1s1,2.4,2,3.5c1,1.1,2.4,2.2,4.4,2.9s4.6,1.2,7.9,1.2c0.6,0,2.5,0,5,0
		c2.5,0,5.6,0,8.6,0c3,0,5.9,0,8.1,0s3.7,0,3.7,0c0.8,0,1.7-0.1,2.7-0.4c1-0.3,2.1-0.7,3.3-1.4c1.2-0.7,2.4-1.5,3.7-2.7
		s2.7-2.5,4.1-4.2c0.4-0.5,2.2-2.7,4.8-5.8c2.6-3.1,5.9-7,9.2-11.1c3.4-4,6.8-8.1,9.7-11.5c2.8-3.4,5.1-6,6.1-7.1h-4.3H389h-4.3
		H380.4z"/>
	<path d="M365.8,58.9c-0.8-0.8-1.5-1.7-2.4-2.5s-1.8-1.5-3-2.1c-1.2-0.6-2.5-1.1-4.2-1.5c-1.7-0.4-3.7-0.6-6.2-0.6c0,0-0.4,0-1.3,0
		s-2.1,0-3.9,0c-1.8,0-4,0-6.7,0c-2.7,0-6,0-9.8,0c-2.7,0-5,0.5-6.9,1.3s-3.4,1.9-4.5,3.2c-1.2,1.2-2,2.6-2.5,3.9
		c-0.5,1.3-0.8,2.6-0.8,3.6c0,1,0,3.2,0,5.8c0,2.7,0,5.9,0,9.1s0,6.3,0,8.9c0,2.6,0,4.5,0,5.3l3.7,0l3.7,0l3.7,0l3.7,0
		c0-0.8,0-2.5,0-4.7c0-2.2,0-5,0-7.7c0-2.7,0-5.5,0-7.7c0-2.3,0-4.1,0-4.9c0-0.8,0.1-1.6,0.3-2.2c0.2-0.6,0.5-1.2,1-1.6
		c0.5-0.4,1.3-0.8,2.3-1c1-0.2,2.3-0.3,3.9-0.3c1.6,0,2.7,0,3.5,0s1.3,0,1.6,0c0.3,0,0.5,0,0.6,0s0.2,0,0.4,0c1.5,0,2.9,0,4.1,0.1
		s2.3,0.2,3.3,0.4s1.9,0.6,2.8,1s1.7,1.1,2.5,1.9c0.7,0.7,2.5,2.5,4.9,4.9c2.4,2.4,5.5,5.5,8.5,8.5s6,6.1,8.5,8.5s4.2,4.3,4.9,4.9
		h4.2h4.2h4.2h4.2c-1-1.1-3.5-3.7-6.6-7S385,79,381.3,75.1c-3.7-3.9-7.4-7.7-10.2-10.7C368.3,61.5,366.3,59.4,365.8,58.9z"/>
</g>
</svg>
