<svg xmlns="http://www.w3.org/2000/svg" viewBox="0 0 600 256">
  <title>blank</title>
  <g fill="#333">
    <rect y="224" width="128" height="32"/>
    <path d="M172,168.79C172,166.33,172,12,172,12h-2.74S157,21,130,27.42V32h7.09c6.27,0,5.91,6.44,5.91,15.13V167.92c0,10.33-5.87,12-12,12V187h53v-7.14C179.5,179.86,172,178.75,172,168.79Z"/>
    <path d="M78.29,77.57C64.08,77.57,55,84.37,49,92.63V12H46.3S34,21,7,27.42V32h7.14c6.65,0,6.05,5.8,6.05,15.2L20.33,161c0,14.9-4.33,21.76-4.33,21.76V187H62.48C98.87,187,121,155.78,121,126.9,121,102.14,106.72,77.57,78.29,77.57ZM60.18,175.91c-7.11,0-11.18-2.29-11.18-2.29V99.12c6-2.29,10.45-3.44,14.81-3.44,19,0,26.73,19.71,26.73,39C90.53,156.88,80.35,175.91,60.18,175.91Z"/>
    <path d="M414,168.78v-58.7c0-22.24-10.36-30.95-26.17-30.95C371.09,79.14,355,93,349,100.94V79h-2.9S335,88.14,308,94.55V99h6.93c6.65,0,6.07,5.87,6.07,15.27v54.48c0,7.81-4.87,11.25-12,11.11V187h52v-7.14c-5.42,0-12-1.78-12-11.07v-61a40.09,40.09,0,0,1,24.17-8.48C382.11,99.31,386,103,386,119c0,0,0,48,0,49.79C386,177.41,380,180,374,180v7h52v-7.06C419.81,179.91,414,177.41,414,168.78Z"/>
    <path d="M563.38,182.51c-5.38-.47-14.4-6-23.28-17.23L504.19,119l23.38-20.76c8-7.34,22.94-11.72,22.94-11.72l0.1-4.49H507v5.88c5,1.15,7,2.27,7.23,5.09s-2.19,5.29-9.06,11.75c0,0-23.55,19.09-24.49,19.92s-3.69.33-3.69-1.7c0-1.81.15-110.94,0.15-110.94h-2.84S463,21,436,27.42V32h6.88c6.65,0,6.12,9.93,6.12,19.33V168.62c0,7.71-4.25,11.24-12,11.24V187l52,0v-7.14c-6.5,0-11.92-1.9-11.92-11,0-1.58-.08-32.83-0.08-33.78s2.78-1.69,3.66-.46c1.13,1.58,30.43,36,31.28,37,6,6.87,11.11,15.34,15.93,15.34H565v-4.25Z"/>
    <path d="M286.87,176.06c-3.84,0-4.87-3.87-4.87-9.94V117.47c1.25-28-8.79-37.94-31.54-37.81-3.48,0-4.13,0-6.21,0-8.38,0-32.21,17.75-36.25,20.42-2.46,1.83-4.56,3.17-4.88,5.17-0.27,1.72,1,4.66,2.77,7.32l4.36,7,3-1.34,0.23-.08c3.15-1.41,2.51-1.14,4.79-2.21a4.33,4.33,0,0,0,1.91-1.46,9.72,9.72,0,0,0,1.12-3.49c0.5-3,1.13-12.14,10.6-14.63,3.17-.83,10.92-1.12,14.92.38,8.36,3.14,9.16,12.23,9.16,15.67v12.87s-7.14,2.67-13.58,5.05C226.94,136,197,143.21,197,163.22c0,17.19,11.93,25.16,25.45,25.43,19.48,0.38,33.55-16.11,34.55-17v3.79c0,8.69,6.65,13.55,17,13.55,15.16,0,25.06-10.92,25.06-10.92l-3.25-5.46S291.12,176.06,286.87,176.06Zm-51.34-3.46c-7.79,0-12.31-5.86-12.31-13,0-13.07,12.67-19.14,24.16-23.09,4.61-1.58,8.83-3,8.83-3l0,27.55C250.63,168.79,241.72,172.6,235.53,172.6Z"/>
  </g>
</svg>
