<svg xmlns="http://www.w3.org/2000/svg" viewBox="0 0 568.57 189.02"><defs><style>.cls-1{fill:#333333;stroke:#000;}</style></defs><title>Asset 1</title><g id="Layer_2" data-name="Layer 2"><g id="Layer_3" data-name="Layer 3"><path d="M399.79,100.69,566.77.5H446.17L351.85,57.71,326.19,32C294.34.19,246.41.5,246.41.5H79.65L.76,188.51l175.14-1.86c95.25,0,165.28-50.87,165.28-50.87L387.42,182h93.69l-6.5-6.5ZM181,148.31c-53.19,0-90.46.62-90.46.62l47.62-115h68.65s30.93-3.71,55,20.41l35.87,35.87S234.2,148.31,181,148.31Z"/><path class="cls-1" d="M399.79,100.69,566.77.5H446.17L351.85,57.71,326.19,32C294.34.19,246.41.5,246.41.5H79.65L.76,188.51l175.14-1.86c95.25,0,165.28-50.87,165.28-50.87L387.42,182h93.69l-6.5-6.5ZM181,148.31c-53.19,0-90.46.62-90.46.62l47.62-115h68.65s30.93-3.71,55,20.41l35.87,35.87S234.2,148.31,181,148.31Z"/></g></g></svg>
