<svg xmlns="http://www.w3.org/2000/svg" viewBox="0 0 41.19 45.81"><path class="cls-1" style="fill:#333333" d="M29.52 39.21h-5.7c.75 4.09 4.17 6.6 9.18 6.6 4.57 0 8.19-2.54 8.19-6.8 0-3.21-2-5.14-5.56-6l-4.1-.94c-1.09-.24-1.74-.74-1.74-1.66 0-1.15 1.06-1.82 2.63-1.82a3.12 3.12 0 0 1 3.21 2H41c-.58-3.58-3.48-6.46-8.6-6.46-4.65 0-8.06 2.78-8.06 6.83 0 3.52 2.32 5.1 5.39 5.78l4 .84c1.33.3 2 .74 2 1.72 0 1.29-1.16 2-2.83 2a3.18 3.18 0 0 1-3.38-2.13m-27.59-18h16.13v-4.75H7.23V13h10.22V8.65H7.23V5.19h10.83V.47H1.92zm19.71 14.48c0-5.3-3.49-9.39-9.46-9.39H8.65v9.39H13v-4.51c1.27 0 3.84.9 3.84 4.51 0 3-2.42 4.85-6 4.85s-6-1.74-6-4.78a3.91 3.91 0 0 1 1.82-3.56l-2.61-4.49C1.58 29.18 0 31.89 0 35.72c0 6 4.44 10.09 10.82 10.09s10.82-4.08 10.82-10.16m19.55-23.46V8.65H31.8V13h4.51c0 1.27-.9 3.84-4.51 3.84-3 0-4.85-2.42-4.85-6s1.74-6 4.78-6a3.91 3.91 0 0 1 3.56 1.82l4.48-2.58C38.27 1.58 35.56 0 31.73 0c-6 0-10.09 4.44-10.09 10.82s4.08 10.82 10.16 10.82c5.3 0 9.39-3.49 9.39-9.46"/></svg>
