<?xml version="1.0" encoding="UTF-8"?>
<svg width="173px" height="157px" viewBox="0 0 173 157" version="1.1" xmlns="http://www.w3.org/2000/svg" xmlns:xlink="http://www.w3.org/1999/xlink">
    <!-- Generator: Sketch 52.3 (67297) - http://www.bohemiancoding.com/sketch -->
    <title>Group 5</title>
    <desc>Created with Sketch.</desc>
    <g id="Temp" stroke="none" stroke-width="1" fill="none" fill-rule="evenodd">
        <g id="Desktop---noscroll" transform="translate(-752.000000, -304.000000)" fill="#FFFFFF">
            <g id="Group-5" transform="translate(752.000000, 304.000000)">
                <path d="M22.96,47.08 C10,47.08 0.82,37.36 0.82,24.76 C0.82,12.16 10,2.44 22.96,2.44 C35.92,2.44 45.1,12.16 45.1,24.76 C45.1,37.36 35.92,47.08 22.96,47.08 Z M22.96,41.68 C32.68,41.68 38.98,34.06 38.98,24.76 C38.98,15.46 32.68,7.84 22.96,7.84 C13.24,7.84 6.94,15.46 6.94,24.76 C6.94,34.06 13.24,41.68 22.96,41.68 Z M71.32,21.52 L67.12,24.7 C65.86,23.14 64,21.88 61.3,21.88 C58.78,21.88 56.56,23.02 56.56,25.06 C56.56,28.48 61.42,28.96 63.82,29.5 C68.5,30.64 72.1,32.44 72.1,37.78 C72.1,44.2 66.22,46.72 60.58,46.72 C55.9,46.72 52.42,45.52 49.6,41.68 L53.68,38.32 C55.42,40.06 57.46,41.68 60.58,41.68 C63.34,41.68 66.34,40.54 66.34,38.08 C66.34,34.84 61.84,34.24 59.5,33.7 C54.88,32.56 50.8,31.06 50.8,25.6 C50.8,19.66 56.26,16.84 61.6,16.84 C65.38,16.84 69.28,18.16 71.32,21.52 Z M79.06,46 L79.06,0.64 L84.46,0.64 L84.46,46 L79.06,46 Z M97.42,31.78 C97.42,37.54 101.02,41.68 106.78,41.68 C112.54,41.68 116.14,37.54 116.14,31.78 C116.14,26.02 112.54,21.88 106.78,21.88 C101.02,21.88 97.42,26.02 97.42,31.78 Z M91.66,31.78 C91.66,23.5 98.32,16.84 106.78,16.84 C115.24,16.84 121.9,23.5 121.9,31.78 C121.9,40.06 115.24,46.72 106.78,46.72 C98.32,46.72 91.66,40.06 91.66,31.78 Z" id="Oslo"></path>
                <path d="M80.1019753,100.069767 L80.1019753,57.5897674 L107.521975,57.5897674 L107.521975,62.9897674 L85.8619753,62.9897674 L85.8619753,75.6497674 L106.021975,75.6497674 L106.021975,81.0497674 L85.8619753,81.0497674 L85.8619753,94.6697674 L108.601975,94.6697674 L108.601975,100.069767 L80.1019753,100.069767 Z M115.801975,100.069767 L115.801975,54.7097674 L121.201975,54.7097674 L121.201975,100.069767 L115.801975,100.069767 Z M129.781975,100.069767 L129.781975,71.6297674 L134.821975,71.6297674 L134.821975,76.0697674 L134.941975,76.0697674 C135.481975,74.3897674 138.961975,70.9097674 144.061975,70.9097674 C148.261975,70.9097674 151.141975,72.7097674 152.941975,76.1897674 C154.801975,72.7097674 158.521975,70.9097674 161.941975,70.9097674 C170.701975,70.9097674 172.741975,77.1497674 172.741975,83.5097674 L172.741975,100.069767 L167.341975,100.069767 L167.341975,84.2297674 C167.341975,79.9097674 166.441975,75.9497674 161.221975,75.9497674 C156.001975,75.9497674 153.961975,79.4897674 153.961975,84.5297674 L153.961975,100.069767 L148.561975,100.069767 L148.561975,85.1897674 C148.561975,79.7897674 147.781975,75.9497674 142.561975,75.9497674 C138.661975,75.9497674 135.181975,78.8897674 135.181975,85.3097674 L135.181975,100.069767 L129.781975,100.069767 Z" id="Elm"></path>
                <path d="M22.8580247,141.922481 L22.8580247,99.4424806 L37.6780247,99.4424806 C55.6180247,99.4424806 59.9980247,112.822481 59.9980247,120.682481 C59.9980247,131.542481 51.8980247,141.922481 36.7180247,141.922481 L22.8580247,141.922481 Z M28.6180247,104.842481 L28.6180247,136.522481 L35.8780247,136.522481 C45.5980247,136.522481 53.8780247,131.182481 53.8780247,120.682481 C53.8780247,115.282481 51.0580247,104.842481 37.2580247,104.842481 L28.6180247,104.842481 Z M70.2580247,120.322481 L67.0180247,116.962481 C70.0180247,114.142481 74.3380247,112.762481 78.2980247,112.762481 C86.6980247,112.762481 90.1780247,117.322481 90.1780247,122.242481 L90.1780247,136.762481 C90.1780247,138.742481 90.2380247,140.422481 90.4180247,141.922481 L85.6180247,141.922481 C85.4980247,140.482481 85.4380247,139.042481 85.4380247,137.602481 L85.3180247,137.602481 C82.9180247,141.262481 79.6780247,142.642481 75.3580247,142.642481 C70.0780247,142.642481 65.5180247,139.642481 65.5180247,134.122481 C65.5180247,126.802481 72.5380247,124.282481 81.1780247,124.282481 L85.1380247,124.282481 L85.1380247,123.082481 C85.1380247,120.142481 82.9780247,117.082481 78.3580247,117.082481 C74.2180247,117.082481 72.2380247,118.822481 70.2580247,120.322481 Z M85.1380247,128.242481 L82.2580247,128.242481 C77.1580247,128.242481 70.9180247,129.142481 70.9180247,133.702481 C70.9180247,136.942481 73.3180247,138.322481 77.0380247,138.322481 C83.0380247,138.322481 85.1380247,133.882481 85.1380247,130.042481 L85.1380247,128.242481 Z M106.438025,142.102481 L94.6180247,113.482481 L100.858025,113.482481 L109.318025,135.682481 L109.438025,135.682481 L117.478025,113.482481 L123.298025,113.482481 L109.798025,148.042481 C107.878025,152.962481 106.018025,156.322481 100.078025,156.322481 C98.4580247,156.322481 96.7780247,156.142481 95.2780247,155.542481 L95.9380247,150.622481 C96.9580247,151.042481 98.0980247,151.282481 99.1780247,151.282481 C102.598025,151.282481 103.618025,149.422481 104.698025,146.602481 L106.438025,142.102481 Z" id="Day"></path>
            </g>
        </g>
    </g>
</svg>