<svg id="svg2" xmlns="http://www.w3.org/2000/svg" xmlns:xlink="http://www.w3.org/1999/xlink" viewBox="0 0 321 121"><defs><style>.cls-1{fill:none;}.cls-2{clip-path:url(#clip-path);}.cls-3{fill:#231f20;}</style><clipPath id="clip-path"><rect class="cls-1" x="-400" y="-340" width="1122.52" height="793.7"/></clipPath></defs><title>Artboard 1</title><g id="g10"><g id="g12"><g class="cls-2"><g id="g14"><path id="path20" class="cls-3" d="M19.85,84.51H13.33V30.72h6.53Zm0-63.88H13.33V10.1h6.53Z"/><path id="path22" class="cls-3" d="M59.17,30.7v5.51h-11V72.5A11.73,11.73,0,0,0,49,77.56q.9,1.83,4.46,2a46.92,46.92,0,0,0,5.67-.34v5.59c-1,0-2,0-2.93.08s-2,.09-2.93.09q-6.59,0-9.22-2.56T41.57,73l.06-36.82H32.25V30.7h9.38V14.59h6.53V30.7Z"/><path id="path24" class="cls-3" d="M111.14,46.65a19.69,19.69,0,0,0-3.38-6.09,16.74,16.74,0,0,0-5.31-4.27,15.19,15.19,0,0,0-7.07-1.62,15.44,15.44,0,0,0-7.18,1.62,16.72,16.72,0,0,0-5.3,4.27,21.15,21.15,0,0,0-3.49,6.14,29.91,29.91,0,0,0-1.72,7.13h34.75a24,24,0,0,0-1.3-7.18m-32.46,20a20.31,20.31,0,0,0,3.18,6.84,18.27,18.27,0,0,0,5.52,5,15.46,15.46,0,0,0,8,2q7.19,0,11.25-3.75a19.76,19.76,0,0,0,5.63-10h6.61q-2.09,9.18-7.68,14.18T95.39,86a25.11,25.11,0,0,1-11-2.24,20.24,20.24,0,0,1-7.57-6.15,26.63,26.63,0,0,1-4.33-9.07,41,41,0,0,1-1.41-10.88,39,39,0,0,1,1.4-10.42,28,28,0,0,1,4.33-9.12,21.82,21.82,0,0,1,7.56-6.46,23.29,23.29,0,0,1,11-2.45,21.31,21.31,0,0,1,18.51,9.41A28.33,28.33,0,0,1,118,48.26a42.55,42.55,0,0,1,1,11.08H77.69a29.3,29.3,0,0,0,1,7.36"/><path id="path26" class="cls-3" d="M139.2,30.7V43.31h.2a20.7,20.7,0,0,1,7.76-10.13,20.28,20.28,0,0,1,12.56-3.25v6.61a19.78,19.78,0,0,0-8.13,1.2,18.36,18.36,0,0,0-6.31,4,18.13,18.13,0,0,0-4.11,6.2,20.69,20.69,0,0,0-1.46,7.87V84.51H133.1V30.7Z"/><path id="path28" class="cls-3" d="M205.33,55.09a3.76,3.76,0,0,1-2.4,1.67,23.84,23.84,0,0,1-3.13.73q-4.17.73-8.6,1.3a47.33,47.33,0,0,0-8.08,1.72,15.82,15.82,0,0,0-6,3.28,7.82,7.82,0,0,0-2.35,6.1,9.55,9.55,0,0,0,1,4.43,10.69,10.69,0,0,0,2.66,3.34,11.51,11.51,0,0,0,3.86,2.13,14.11,14.11,0,0,0,4.49.73A22.51,22.51,0,0,0,194,79.38,17.72,17.72,0,0,0,200,76a15.9,15.9,0,0,0,5.58-12.41V55.09Zm-32.81-16A15.25,15.25,0,0,1,177,33.43a19.16,19.16,0,0,1,6.71-3.23,32.72,32.72,0,0,1,8.53-1,37.59,37.59,0,0,1,7.08.68,17.1,17.1,0,0,1,6.35,2.55,13.93,13.93,0,0,1,4.58,5.26,19.05,19.05,0,0,1,1.77,8.8V75q0,4,3.86,4a5,5,0,0,0,2.08-.42v5.52c-.76.14-1.44.24-2,.31a19.76,19.76,0,0,1-2.24.11,9.88,9.88,0,0,1-4-.68,5.32,5.32,0,0,1-2.34-1.93,7.27,7.27,0,0,1-1.09-3,25.49,25.49,0,0,1-.26-3.8h-.21a44.12,44.12,0,0,1-3.59,4.64,17.83,17.83,0,0,1-4.06,3.39,18.83,18.83,0,0,1-5.1,2.08,28,28,0,0,1-6.82.73,27,27,0,0,1-7-.88,15.78,15.78,0,0,1-5.73-2.82,13.39,13.39,0,0,1-3.85-4.89,16.33,16.33,0,0,1-1.4-7q0-5.63,2.5-8.81a15.7,15.7,0,0,1,6.61-4.85,37.51,37.51,0,0,1,9.27-2.34q5.16-.68,10.47-1.3,2.08-.21,3.65-.52a6.46,6.46,0,0,0,2.61-1.1A5.12,5.12,0,0,0,205,49.27a9.27,9.27,0,0,0,.58-3.55,12,12,0,0,0-1.1-5.47,8.67,8.67,0,0,0-3-3.39,12.14,12.14,0,0,0-4.49-1.72,29.9,29.9,0,0,0-5.48-.47,16.59,16.59,0,0,0-10.22,3q-4,3-4.17,9.53h-6.53a21.77,21.77,0,0,1,2-8.13"/><path id="path30" class="cls-3" d="M251.88,30.7v5.51h-11V72.5a11.73,11.73,0,0,0,.89,5.06q.9,1.83,4.46,2a47,47,0,0,0,5.67-.34v5.59c-1,0-2,0-2.93.08S247,85,246,85c-4.4,0-7.47-.85-9.22-2.56s-2.59-4.84-2.52-9.44l.06-36.82H225V30.7h9.38V14.59h6.53V30.7Z"/><path id="path32" class="cls-3" d="M303.84,46.65a19.59,19.59,0,0,0-3.38-6.09,16.77,16.77,0,0,0-5.3-4.27,15.19,15.19,0,0,0-7.07-1.62,15.41,15.41,0,0,0-7.18,1.62,16.74,16.74,0,0,0-5.31,4.27,21.28,21.28,0,0,0-3.49,6.14,30,30,0,0,0-1.72,7.13h34.75a23.64,23.64,0,0,0-1.3-7.18m-32.45,20a20.11,20.11,0,0,0,3.18,6.84,18.22,18.22,0,0,0,5.52,5,15.45,15.45,0,0,0,8,2q7.18,0,11.25-3.75a19.77,19.77,0,0,0,5.63-10h6.61q-2.09,9.18-7.67,14.18T288.1,86a25.16,25.16,0,0,1-11-2.24,20.21,20.21,0,0,1-7.56-6.15,26.59,26.59,0,0,1-4.33-9.07,41.12,41.12,0,0,1-1.41-10.88,39,39,0,0,1,1.41-10.42,27.89,27.89,0,0,1,4.33-9.12,21.74,21.74,0,0,1,7.56-6.46,23.3,23.3,0,0,1,11-2.45,21.31,21.31,0,0,1,18.51,9.41,28.2,28.2,0,0,1,4.12,9.68,42.32,42.32,0,0,1,1,11.08H270.39a29.08,29.08,0,0,0,1,7.36"/><path id="path34" class="cls-3" d="M108.79,106.74H99.88v-6.57h8.91Z"/><path id="path36" class="cls-3" d="M123.6,106.74h-8.9v-6.57h8.9Z"/><path id="path38" class="cls-3" d="M129.76,106.74h17.82v-6.57H129.76Z"/><path id="path40" class="cls-3" d="M153.87,106.74h26.6v-6.57h-26.6Z"/><path id="path42" class="cls-3" d="M186.69,106.74H231v-6.57H186.69Z"/><path id="path44" class="cls-3" d="M237.64,106.74h71.17v-6.57H237.64Z"/></g></g></g></g></svg>