<?xml version="1.0" encoding="utf-8"?>
<!-- Generator: Adobe Illustrator 21.0.2, SVG Export Plug-In . SVG Version: 6.00 Build 0)  -->
<svg version="1.1" id="Partner" xmlns="http://www.w3.org/2000/svg" xmlns:xlink="http://www.w3.org/1999/xlink" x="0px" y="0px"
	 viewBox="0 0 338 91" style="enable-background:new 0 0 338 91;" xml:space="preserve">
<style type="text/css">
	.st0{fill:#333333;}
</style>
<title>jz17-partner-knowit</title>
<path class="st0" d="M61.8,25.3h-7.6c-2.4,0-2.7,0.3-5.4,3.1L24.6,52.7V14.4c0.1-1-0.6-1.9-1.6-2c-0.1,0-0.3,0-0.4,0H11
	c-1-0.1-1.9,0.6-2,1.6c0,0.1,0,0.3,0,0.4v5.2c-0.1,1,0.6,1.9,1.6,2c0.1,0,0.3,0,0.4,0h4.2v47.3H11c-1-0.1-1.9,0.6-2,1.6
	c0,0.1,0,0.3,0,0.4V76c-0.1,1,0.6,1.9,1.6,2c0.1,0,0.3,0,0.4,0h17.8c1,0.1,1.9-0.6,2-1.6c0-0.1,0-0.3,0-0.4v-5.2
	c0.1-1-0.6-1.9-1.6-2c-0.1,0-0.3,0-0.4,0h-4.2V65l9.1-9.2l16,19.6c2.1,2.7,2.1,2.7,5.2,2.7h6.9c1,0.1,1.9-0.6,2-1.6
	c0-0.1,0-0.3,0-0.4v-5.2c0.1-1-0.6-1.9-1.6-2c-0.1,0-0.3,0-0.4,0h-5.7L40.2,49.2l14.5-14.8h7.1c0.9,0.2,1.8-0.5,2-1.4
	c0-0.2,0-0.3,0-0.5v-5.3c0.1-1-0.6-1.9-1.6-2C62.1,25.3,61.9,25.3,61.8,25.3z"/>
<path class="st0" d="M124.3,68.9h-4.2V46.3c0-13.4-8.5-22.1-21.6-22.1C93,24,87.6,26,83.5,29.7v-2.4c0.1-1-0.6-1.9-1.6-2
	c-0.1,0-0.3,0-0.4,0H70c-1-0.1-1.9,0.6-2,1.6c0,0.1,0,0.3,0,0.4v5.2c-0.1,1,0.6,1.9,1.6,2c0.1,0,0.3,0,0.4,0h4.2v34.4H70
	c-1-0.1-1.9,0.6-2,1.6c0,0.1,0,0.3,0,0.4V76c-0.1,1,0.6,1.9,1.6,2c0.1,0,0.3,0,0.4,0h17.7c1,0.1,1.9-0.6,2-1.6c0-0.1,0-0.3,0-0.4
	v-5.2c0.1-1-0.6-1.9-1.6-2c-0.1,0-0.3,0-0.4,0h-4.2v-21c0-8.6,6.1-14.9,14.4-14.9c8.1,0,13,5.3,13,14.1v21.7h-4.2
	c-1-0.1-1.9,0.6-2,1.6c0,0.1,0,0.3,0,0.4V76c-0.1,1,0.6,1.9,1.6,2c0.1,0,0.3,0,0.4,0h17.6c1,0.1,1.9-0.6,2-1.6c0-0.1,0-0.3,0-0.4
	v-5.2c0.1-1-0.6-1.9-1.6-2C124.6,68.8,124.4,68.8,124.3,68.9z"/>
<path class="st0" d="M153,24.3c-15.1,0-27,12.1-27,27.5c0,15.3,11.8,27.3,26.8,27.3c15.2,0,27.1-12.1,27.1-27.5
	C179.9,36.2,168.1,24.3,153,24.3z M153,70.1c-9.7,0-17.3-8.2-17.3-18.6s7.3-18.3,17.1-18.3s17.4,8.2,17.4,18.6S162.8,70.1,153,70.1z
	"/>
<path class="st0" d="M258.3,25.3h-18.1c-1-0.1-1.9,0.6-2,1.6c0,0.1,0,0.3,0,0.4v5.2c-0.1,1,0.6,1.9,1.6,2c0.1,0,0.3,0,0.4,0h4.1
	l-8.6,27.9l-12.2-35.6c-0.3-0.9-1.2-1.6-2.2-1.6h-3.6c-1,0-1.9,0.6-2.2,1.6l-12.1,35.6l-8.6-27.9h4.1c1,0.1,1.9-0.6,2-1.6
	c0-0.1,0-0.3,0-0.4v-5.1c0.1-1-0.6-1.9-1.6-2c-0.1,0-0.3,0-0.4,0h-18.3c-1-0.1-1.9,0.6-2,1.6c0,0.1,0,0.3,0,0.4v5.2
	c-0.1,1,0.6,1.9,1.6,2c0.1,0,0.3,0,0.4,0h4.3L199,76.7c0.3,0.9,1.2,1.5,2.2,1.6h3.9c1,0,1.9-0.6,2.2-1.6l12-34.6l12,34.6
	c0.3,1,1.2,1.6,2.2,1.6h3.9c1,0,1.9-0.6,2.2-1.5L254,34.5h4.3c1,0.1,1.9-0.6,2-1.6c0-0.1,0-0.3,0-0.4v-5.2c0.1-1-0.6-1.9-1.6-2
	C258.6,25.3,258.4,25.3,258.3,25.3z"/>
<path class="st0" d="M284,68.9h-4.2V27.3c0.1-1-0.6-1.9-1.6-2c-0.1,0-0.3,0-0.4,0h-11.6c-1-0.1-1.9,0.6-2,1.6c0,0.1,0,0.3,0,0.4v5.2
	c-0.1,1,0.6,1.9,1.6,2c0.1,0,0.3,0,0.4,0h4.2v34.4h-7.6c-1-0.1-1.9,0.6-2,1.6c0,0.1,0,0.3,0,0.4V76c-0.1,1,0.6,1.9,1.6,2
	c0.1,0,0.3,0,0.4,0H284c1,0.1,1.9-0.6,2-1.6c0-0.1,0-0.3,0-0.4v-5.2c0.1-1-0.6-1.9-1.6-2C284.3,68.8,284.1,68.8,284,68.9z"/>
<path class="st0" d="M325,51.2h-5.1c-1-0.1-1.9,0.6-2,1.6c0,0.1,0,0.3,0,0.4V63c0,3.4-2.4,6.8-6.4,6.8c-5,0-7.2-2.1-7.2-7V34.5h12.3
	c1,0.1,1.9-0.6,2-1.6c0-0.1,0-0.3,0-0.4v-5.2c0.1-1-0.6-1.9-1.6-2c-0.1,0-0.3,0-0.4,0h-12.3v-11c0.1-1-0.6-1.9-1.6-2
	c-0.1,0-0.3,0-0.4,0H297c-1-0.1-1.9,0.6-2,1.6c0,0.1,0,0.3,0,0.4v11h-5.6c-1-0.1-1.9,0.6-2,1.6c0,0.1,0,0.3,0,0.4v5.2
	c-0.1,1,0.6,1.9,1.6,2c0.1,0,0.3,0,0.4,0h5.6v28.8c0,9.4,6.2,15.6,15.8,15.6c9.9,0,16.2-5.9,16.2-15.1V53.2c0.1-1-0.6-1.9-1.6-2
	C325.3,51.2,325.1,51.2,325,51.2z"/>
<circle class="st0" cx="275" cy="12.8" r="5.9"/>
</svg>
