<?xml version="1.0" encoding="utf-8"?>
<!-- Generator: Adobe Illustrator 21.0.2, SVG Export Plug-In . SVG Version: 6.00 Build 0)  -->
<svg version="1.1" id="Layer_1" xmlns="http://www.w3.org/2000/svg" xmlns:xlink="http://www.w3.org/1999/xlink" x="0px" y="0px"
	 viewBox="0 0 504 76.7" enable-background="new 0 0 504 76.7" xml:space="preserve">
<g>
	<g>
		<path fill="#333333" d="M18.1,6v26.7h0.2L31.8,6h19.3L33.6,36.4l19.7,39.2H32.6L21.9,51.3l-3.8,5.9v18.4H0V6H18.1z"/>
		<path fill="#333333" d="M54.1,24.2c0.8-4.6,2.2-8.3,4.2-11.2c2-2.9,4.5-5,7.7-6.3c3.2-1.3,7.1-2,11.7-2c4.6,0,8.5,0.7,11.7,2
			c3.2,1.3,5.8,3.4,7.7,6.3c2,2.9,3.3,6.6,4.2,11.2c0.8,4.6,1.3,10.1,1.3,16.6c0,6.5-0.4,12-1.3,16.6c-0.8,4.6-2.2,8.3-4.2,11.2
			c-2,2.9-4.5,5-7.7,6.2c-3.2,1.2-7.1,1.9-11.7,1.9c-4.6,0-8.5-0.6-11.7-1.9c-3.2-1.2-5.8-3.3-7.7-6.2c-2-2.9-3.4-6.6-4.2-11.2
			c-0.8-4.6-1.3-10.1-1.3-16.6C52.9,34.3,53.3,28.7,54.1,24.2z M71.8,52.4c0.1,3.1,0.4,5.5,0.8,7.4c0.4,1.8,1,3.1,1.9,3.8
			c0.8,0.7,1.9,1.1,3.3,1.1c1.4,0,2.5-0.4,3.3-1.1c0.8-0.7,1.4-2,1.9-3.8c0.4-1.8,0.7-4.3,0.8-7.4c0.1-3.1,0.2-7,0.2-11.7
			c0-4.7-0.1-8.6-0.2-11.7c-0.1-3.1-0.4-5.5-0.8-7.4c-0.4-1.8-1-3.1-1.9-3.8c-0.8-0.7-1.9-1.1-3.3-1.1c-1.4,0-2.5,0.4-3.3,1.1
			c-0.8,0.7-1.4,2-1.9,3.8c-0.4,1.8-0.7,4.3-0.8,7.4c-0.1,3.1-0.2,7-0.2,11.7C71.6,45.5,71.7,49.4,71.8,52.4z"/>
		<path fill="#333333" d="M135.5,6c5.3,0,9.4,1,12.3,2.9c2.9,1.9,5.1,4.5,6.6,7.7c1.5,3.2,2.4,6.9,2.7,11.1
			c0.3,4.2,0.5,8.6,0.5,13.1c0,4.6-0.2,8.9-0.5,13.1c-0.3,4.2-1.2,7.9-2.7,11.1c-1.5,3.2-3.7,5.8-6.6,7.7c-2.9,1.9-7,2.9-12.3,2.9
			h-26.3V6H135.5z M130.9,62.5c1.8,0,3.2-0.2,4.2-0.7c1-0.5,1.8-1.5,2.4-3.1c0.6-1.6,0.9-3.8,1.1-6.6c0.2-2.9,0.2-6.6,0.2-11.3
			c0-4.7-0.1-8.5-0.2-11.3c-0.2-2.9-0.5-5.1-1.1-6.6c-0.6-1.6-1.4-2.6-2.4-3.1c-1-0.5-2.4-0.7-4.2-0.7h-3.6v43.5H130.9z"/>
		<path fill="#333333" d="M206.4,6v14.8h-23.1v11.9H205v14.2h-21.7v13.9h24v14.8h-42.1V6H206.4z"/>
		<path fill="#333333" d="M239.2,6l7.3,41.3h0.2L254,6h26v69.7h-17V23.7h-0.2l-9.7,51.9h-13.1l-9.7-51.9h-0.2v51.9h-17V6H239.2z"/>
		<path fill="#333333" d="M322.1,6l17,69.7h-19.3l-1.9-12.2h-14.4l-1.9,12.2h-19L299.3,6H322.1z M310.6,20.2l-5,29.6h10.1l-5-29.6
			H310.6z"/>
		<path fill="#333333" d="M359.6,6v26.7h0.2L373.2,6h19.3L375,36.4l19.7,39.2H374l-10.6-24.3l-3.8,5.9v18.4h-18.1V6H359.6z"/>
		<path fill="#333333" d="M437.6,6v14.8h-23.1v11.9h21.7v14.2h-21.7v13.9h24v14.8h-42.1V6H437.6z"/>
		<path fill="#333333" d="M473.5,6c3.4,0,6.4,0.5,8.8,1.4c2.4,0.9,4.4,2.2,5.9,3.9c1.5,1.7,2.6,3.6,3.3,5.9c0.7,2.3,1,4.7,1,7.4
			c0,4.7-0.9,8.5-2.8,11.3c-1.9,2.9-4.9,4.6-9,5.3v0.2c4.3,0.4,7.3,1.9,8.9,4.6c1.6,2.7,2.4,6.3,2.4,11v6c0,0.9,0,1.9,0,2.8
			c0,1,0,1.9,0.1,2.8c0.1,0.9,0.2,1.7,0.3,2.4c0.1,0.7,0.3,1.3,0.5,1.7c0.3,0.4,0.5,0.8,0.8,1.1c0.3,0.4,0.7,0.7,1.3,1v1h-19.2
			c-0.5-0.9-0.8-2-1-3.2c-0.2-1.2-0.4-2.5-0.5-3.7c-0.1-1.2-0.2-2.4-0.2-3.6c0-1.1,0-2.1,0-2.8v-4.7c0-2-0.1-3.6-0.3-4.9
			c-0.2-1.3-0.5-2.3-1-3.1c-0.5-0.7-1.1-1.3-1.9-1.6c-0.7-0.3-1.7-0.4-2.8-0.4h-4.8v27.9h-18.1V6H473.5z M466.9,35.4
			c2.6,0,4.5-0.8,5.8-2.3c1.2-1.5,1.9-3.5,1.9-6c0-2.9-0.6-5-1.8-6.2c-1.2-1.2-3.2-1.9-5.9-1.9h-3.5v16.4H466.9z"/>
	</g>
	<g>
		<path fill="#333333" d="M492.5,3.6c0.3-0.7,0.8-1.4,1.3-1.9c0.5-0.5,1.2-0.9,1.9-1.3c0.7-0.3,1.5-0.5,2.3-0.5
			c0.8,0,1.6,0.2,2.3,0.5c0.7,0.3,1.4,0.7,1.9,1.3c0.5,0.5,1,1.2,1.3,1.9c0.3,0.7,0.5,1.5,0.5,2.3c0,0.9-0.2,1.7-0.5,2.4
			c-0.3,0.7-0.8,1.4-1.3,1.9c-0.5,0.5-1.2,1-1.9,1.3c-0.7,0.3-1.5,0.4-2.3,0.4c-0.8,0-1.6-0.1-2.3-0.4c-0.7-0.3-1.4-0.7-1.9-1.3
			c-0.5-0.5-1-1.2-1.3-1.9c-0.3-0.7-0.5-1.5-0.5-2.4C492,5.1,492.2,4.3,492.5,3.6z M493.5,8c0.2,0.6,0.6,1.2,1,1.6
			c0.4,0.5,1,0.8,1.6,1.1c0.6,0.3,1.3,0.4,2,0.4c0.7,0,1.3-0.1,1.9-0.4c0.6-0.3,1.1-0.6,1.6-1.1c0.4-0.5,0.8-1,1-1.6s0.4-1.3,0.4-2
			c0-0.7-0.1-1.4-0.4-2c-0.2-0.6-0.6-1.2-1-1.6c-0.4-0.5-1-0.8-1.6-1.1c-0.6-0.3-1.2-0.4-1.9-0.4c-0.7,0-1.4,0.1-2,0.4
			c-0.6,0.3-1.1,0.6-1.6,1.1c-0.4,0.5-0.8,1-1,1.6c-0.2,0.6-0.4,1.3-0.4,2C493.1,6.7,493.2,7.3,493.5,8z"/>
	</g>
</g>
<g>
	<path fill="#333333" d="M501,9.6h-1.3l-1.1-2.9h-1.8v2.9h-1.3v-7h3c0.8,0,1.5,0.2,1.9,0.6c0.4,0.4,0.6,0.9,0.6,1.5
		c0,0.9-0.4,1.5-1.3,1.9L501,9.6z M496.8,5.7h1.6c0.5,0,0.8-0.1,1-0.3c0.2-0.2,0.3-0.5,0.3-0.8c0-0.3-0.1-0.6-0.3-0.7
		c-0.2-0.2-0.5-0.3-0.9-0.3h-1.7V5.7z"/>
</g>
<g>
</g>
<g>
</g>
<g>
</g>
<g>
</g>
<g>
</g>
<g>
</g>
</svg>
