<?xml version="1.0" encoding="UTF-8" standalone="no"?>
<svg
   xmlns:dc="http://purl.org/dc/elements/1.1/"
   xmlns:cc="http://creativecommons.org/ns#"
   xmlns:rdf="http://www.w3.org/1999/02/22-rdf-syntax-ns#"
   xmlns:svg="http://www.w3.org/2000/svg"
   xmlns="http://www.w3.org/2000/svg"
   id="svg330"
   version="1.1"
   viewBox="0 0 313.50766 36.119202"
   height="36.119202mm"
   width="313.50766mm">
  <defs
     id="defs324" />
  <metadata
     id="metadata327">
    <rdf:RDF>
      <cc:Work
         rdf:about="">
        <dc:format>image/svg+xml</dc:format>
        <dc:type
           rdf:resource="http://purl.org/dc/dcmitype/StillImage" />
        <dc:title></dc:title>
      </cc:Work>
    </rdf:RDF>
  </metadata>
  <g
     transform="translate(226.30169,-6.7975271)"
     id="layer1">
    <path
       id="path231"
       style="fill:#333333;fill-opacity:1;fill-rule:nonzero;stroke:none;stroke-width:0.35277775"
       d="m -170.56575,32.755621 c -0.23001,0 -16.74354,-0.03669 -17.07515,-0.03669 -0.63677,0 -1.08409,-0.184503 -1.08409,-1.115483 l -0.0378,-22.0119209 c 0,-1.0643306 0.83009,-0.9740195 2.13396,-0.9740195 6.06742,0 9.65729,0.00317 16.15863,0.00317 7.09013,0 11.49103,4.9318334 11.49103,12.5112634 0,6.355997 -5.60458,11.623675 -11.58663,11.623675 m 13.40555,-25.9580889 -49.87113,7.056e-4 c 0,0 0.41663,0.7298972 0.9398,0.8752416 1.7025,0.4727222 2.96227,2.2383748 2.96227,3.6787667 l -0.0215,21.780146 c 0,0.645584 0.16404,1.3335 1.13277,1.3335 l 41.69445,0.05292 c 3.95217,0 15.37265,-1.815042 15.37265,-13.794669 0,-10.345564 -7.42739,-13.9266109 -12.20929,-13.9266109" />
    <path
       id="path235"
       style="fill:#333333;fill-opacity:1;fill-rule:nonzero;stroke:none;stroke-width:0.35277775"
       d="m -226.30122,12.453332 c 0.26811,0 13.02032,-0.01693 13.71635,-0.0092 3.29354,0.63112 5.31566,3.161242 5.33859,6.923264 l -0.0215,18.094325 c 0,0.789517 0.39617,1.194507 1.0795,1.194507 l 45.50727,0.02223 c 5.56154,0 10.47997,-1.210733 13.05419,-5.586591 0.0942,-0.160514 0.34078,-0.312208 0.34078,-0.155928 0,0.265995 -0.0198,8.920339 -0.0198,9.955037 l -77.81782,0.02575 c -0.17216,0.0011 -0.27764,-0.360539 -0.0833,-0.479073 1.46755,-0.896408 2.69064,-1.681337 3.47733,-3.206747 0.11853,-0.230013 0.19226,-0.482955 0.19226,-0.775758 0,-7.801682 0.007,-14.990235 0.007,-22.282856 0,-1.513417 -2.28882,-2.504017 -3.98321,-2.792942 -0.45332,-0.07691 -0.42087,-0.567978 -0.78811,-0.926048" />
    <path
       id="path239"
       style="fill:#333333;fill-opacity:1;fill-rule:nonzero;stroke:none;stroke-width:0.35277775"
       d="M -131.43363,42.215181 V 7.8620351 h 1.64817 V 40.670014 h 17.25366 v 1.545167 z" />
    <path
       id="path243"
       style="fill:#333333;fill-opacity:1;fill-rule:nonzero;stroke:none;stroke-width:0.35277775"
       d="m -76.581169,25.064115 c 0,-9.425164 -5.71712,-16.2235444 -14.52422,-16.2235444 -8.910461,0 -14.524211,6.7983804 -14.524211,16.2235444 0,9.322506 5.61375,16.223897 14.524211,16.223897 8.8071,0 14.52422,-6.901391 14.52422,-16.223897 m -30.851121,0 c 0,-9.94022 6.33518,-17.7687111 16.326901,-17.7687111 9.94058,0 16.32691,7.8284911 16.32691,17.7687111 0,9.940572 -6.38633,17.769064 -16.32691,17.769064 -9.991721,0 -16.326901,-7.828492 -16.326901,-17.769064" />
    <path
       id="path247"
       style="fill:#333333;fill-opacity:1;fill-rule:nonzero;stroke:none;stroke-width:0.35277775"
       d="M -55.514729,42.215181 -69.832919,7.8620351 h 1.90535 l 13.39109,32.4474399 13.39109,-32.4474399 h 1.90606 l -14.31819,34.3531459 z" />
    <path
       id="path251"
       style="fill:#333333;fill-opacity:1;fill-rule:nonzero;stroke:none;stroke-width:0.35277775"
       d="m -6.585259,25.064115 c 0,-8.601075 -5.5626,-15.6573361 -15.2968,-15.6573361 h -8.54957 V 40.669946 h 8.54957 c 9.7342,0 15.2968,-6.901392 15.2968,-15.605831 m -25.49455,17.150997 V 7.861965 h 10.19775 c 10.66165,0 17.09914,8.034867 17.09914,17.20215 0,9.270647 -6.43749,17.150997 -17.09914,17.150997 z" />
    <path
       id="path255"
       style="fill:#333333;fill-opacity:1;fill-rule:nonzero;stroke:none;stroke-width:0.35277775"
       d="M 14.480121,9.7675282 5.518861,31.450661 h 17.92322 z M 27.871211,42.215321 24.060151,32.99618 H 4.900791 l -3.81176,9.219141 H -0.81596905 L 13.501871,7.8621754 h 1.95721 l 14.31784,34.3531456 z" />
    <path
       id="path259"
       style="fill:#333333;fill-opacity:1;fill-rule:nonzero;stroke:none;stroke-width:0.35277775"
       d="M 42.345431,42.215181 V 9.406849 H 30.756681 V 7.8620351 h 24.87646 V 9.406849 h -11.63955 v 32.808332 z" />
    <path
       id="path263"
       style="fill:#333333;fill-opacity:1;fill-rule:nonzero;stroke:none;stroke-width:0.35277775"
       d="m 71.909171,9.7675282 -8.96196,21.6831328 h 17.92322 z m 13.39109,32.4477928 -3.81177,-9.219141 h -19.15935 l -3.81106,9.219141 h -1.90571 L 70.930931,7.8621754 h 1.95649 l 14.31856,34.3531456 z" />
  </g>
</svg>
