<svg id="Layer_1" data-name="Layer 1" xmlns="http://www.w3.org/2000/svg" viewBox="0 0 885 206"><defs><style>.cls-1,.cls-2{fill:#231f20;}.cls-1{stroke:#fff;stroke-miterlimit:10;}</style></defs><title>Artboard 1</title><path id="L" class="cls-1" d="M815.95,70.78h9.52v87.51h36.64v9.35H815.95Z"/><path id="E" class="cls-1" d="M738.3,70.78h54.57v9.48H747.81v30.35h44.67v9.48H747.81v38.06h44.67v9.48H738.3Z"/><path id="K" class="cls-1" d="M568.3,70.78H578v36.35l38.07-36.35h12.79l-45.74,43.46,49.3,53.4H619.75L578,122.53v45.11H568.3Z"/><path id="K-2" data-name="K" class="cls-1" d="M653.27,70.78H663v36.35L701,70.78h12.79l-45.74,43.46,49.3,53.4H704.72L663,122.53v45.11h-9.71Z"/><path id="O" class="cls-2" d="M542.72,66.56a10.62,10.62,0,0,0,3.08-7.71,10.74,10.74,0,0,0-3.12-7.8,10.09,10.09,0,0,0-7.47-3.2,10.37,10.37,0,0,0-5.35,1.47,10.62,10.62,0,0,0-3.91,4,10.85,10.85,0,0,0-1.38,4.79A74,74,0,0,0,516,47.77Q495.38,27,464.74,27a68.1,68.1,0,0,0-35.15,9.56A69.07,69.07,0,0,0,403.93,63a74.1,74.1,0,0,0-9.41,36.66q0,29.66,20.65,50.56t50.66,20.89q29.64,0,50.25-21T536.69,99a73.36,73.36,0,0,0-6.17-30.33,10.49,10.49,0,0,0,4.72,1.06A10.08,10.08,0,0,0,542.72,66.56Zm-27.46,62.26A55,55,0,0,1,494.4,150a57,57,0,0,1-29.07,7.75q-23.52,0-40.19-16.85T408.47,99.59a60.23,60.23,0,0,1,7.53-30,56.62,56.62,0,0,1,20.95-21.38,54.87,54.87,0,0,1,28.38-7.94,58.31,58.31,0,0,1,49.93,29.08,58.88,58.88,0,0,1,7.49,29.55A60.36,60.36,0,0,1,515.26,128.81Zm13.2-70a7.06,7.06,0,0,1,1.94-5.11,6.63,6.63,0,0,1,9.55.05,7.44,7.44,0,0,1,0,10.05,6.29,6.29,0,0,1-4.72,2,6.61,6.61,0,0,1-4.34-1.57A6.71,6.71,0,0,1,528.45,58.84ZM510.08,82.74l-3.84,1.09a43.17,43.17,0,0,0-10.61-18.21A41.7,41.7,0,0,0,456.4,54.87l-.92-3.35c12-3,23.27-1.59,33.57,4.26C499.66,61.8,506.64,71,510.08,82.74Z"/><path id="N" class="cls-2" d="M291,167.64V70.78h2.07L356.47,145V70.78h9.39v96.86h-2.14L300.85,94.3v73.34Z"/><path id="O-2" data-name="O" class="cls-2" d="M214.43,68.35q21.64,0,36.21,14.68t14.58,36.15q0,21.27-14.54,36.08a47.81,47.81,0,0,1-35.47,14.81q-21.18,0-35.76-14.75a48.9,48.9,0,0,1-14.58-35.69,52.3,52.3,0,0,1,6.64-25.88A48.75,48.75,0,0,1,189.62,75.1,48.05,48.05,0,0,1,214.43,68.35Zm.42,9.41a38.73,38.73,0,0,0-20,5.6A40,40,0,0,0,180,98.45a42.52,42.52,0,0,0-5.32,21.15q0,17.27,11.77,29.16a38.46,38.46,0,0,0,28.37,11.89,40.2,40.2,0,0,0,20.52-5.47,38.83,38.83,0,0,0,14.72-15,42.59,42.59,0,0,0,5.29-21.09,41.55,41.55,0,0,0-5.29-20.86,41.16,41.16,0,0,0-35.24-20.53Z"/><path id="M" class="cls-2" d="M36.28,167.64,49.91,70.78h1.55l38.71,79.48,38.34-79.48H130l13.71,96.86h-9.33L125,98.37,91.33,167.64H88.9L54.82,97.84l-9.36,69.8Z"/></svg>