<svg viewBox="0 0 94 28" xmlns="http://www.w3.org/2000/svg">
  <path d="M75.6 23.47H18.8L23.33 28l52.27-4.53zM24.07 5.1v.68a5.69 5.69 0 0 0-3.29-1.08c-3.96 0-7.02 3.63-7.02 8.11 0 4.48 3 8.1 7.02 8.1 1.3 0 2.27-.4 3.29-1.07v.68h3.5V5.1h-3.5zm-3.34 12.13c-1.99 0-3.4-1.93-3.4-4.36 0-2.44 1.41-4.37 3.4-4.37 1.98 0 3.34 1.93 3.34 4.37.05 2.43-1.36 4.36-3.34 4.36zM52.1 5.1v9.07c0 1.7-1.2 3.12-2.9 3.12-1.69 0-2.88-1.42-2.88-3.12V5.1h-3.51v9.07c0 3.74 2.55 6.74 6.29 6.74 1.7 0 3-.96 3-.96v.57h3.5V5.1h-3.5zM84.71 20.57v-9.06c0-1.7 1.2-3.12 2.9-3.12 1.69 0 2.88 1.42 2.88 3.12v9.06H94v-9.06c0-3.74-2.55-6.75-6.29-6.75-1.7 0-3 .96-3 .96V5.1h-3.5v15.42h3.5v.05z" fill="#333333"/>
  <path d="M3.68 20.57v-6h2.55l4.47 5.95h4.59l-5.44-7.2a6.58 6.58 0 0 0 2.78-5.44c0-3.69-3-6.63-6.63-6.63H0v19.27h3.68v.05zm0-15.64h2.38c1.64 0 3 1.36 3 3 0 1.65-1.36 3-3 3H3.68v-6zM65 16.9c-.33.22-.73.39-1.18.39-.57 0-1.64-.46-1.64-1.87V8.79h3V5.1h-3V1.25h-3.51V5.1H56.8V8.8h1.87v6.63c0 3.45 2.6 5.5 5.2 5.5.97 0 2.33-.35 3.4-.97l-2.26-3.06zM36.24 12.36l6-7.26h-4.87l-4.24 5.39V0h-3.57v20.57h3.57v-6.34l5.2 6.34h4.88l-6.97-8.21z" fill="#333333"/>
  <path d="M73.1 4.7c-4.07 0-6.96 3.58-6.96 8.11 0 4.76 3.62 8.1 7.3 8.1 1.87 0 4.2-.62 6.18-3.45l-3.12-1.82c-2.38 3.52-6.4 1.76-6.85-1.81h10.08c.9-5.44-2.66-9.13-6.63-9.13zm3.06 6.13h-6.28c.73-3.57 5.6-3.8 6.28 0z" fill="#333333"/>
</svg>
