<?xml version="1.0" encoding="UTF-8" standalone="no"?>
<svg xmlns="http://www.w3.org/2000/svg" viewBox="0 0 424.67 74.67"><defs><style>.cls-1{fill:#333;}</style></defs><title>logo-bw-text</title><g id="Layer_2" data-name="Layer 2"><g id="Layer_1-2" data-name="Layer 1"><path class="cls-1" d="M74.25,74.25H0V0H74.25ZM8.25,66H66V8.25H8.25Z"/><path class="cls-1" d="M28.79,19.76a6.25,6.25,0,1,1-6.25-6.25A6.25,6.25,0,0,1,28.79,19.76Z"/><path class="cls-1" d="M58,19.76a6.26,6.26,0,1,1-6.25-6.25A6.25,6.25,0,0,1,58,19.76Z"/><polygon class="cls-1" points="36.59 61.29 13.91 38.01 20.13 32.59 37.09 49.32 75.57 14.79 81.31 20.72 36.59 61.29"/><path class="cls-1" d="M116.83,74.67c-6.65,0-12-.4-24.79-5.26l4.75-16.85c15.77,4.95,18,5.15,22.32,5.15,3.37,0,5.55-1.78,5.55-5.35,0-2.88-1.69-4.07-4.56-5l-11.6-3.77C100.17,41,92.73,34.81,92.73,23.11,92.73,8.33,104.73,0,120.1,0c5.55,0,10.81.6,22.41,3.67l-4.27,17C125.85,17.55,121.68,17,117.92,17c-3.18,0-5.26,1.29-5.26,5,0,2.57,1.88,3.46,4.76,4.46l11.6,4c8.73,2.87,15.67,8.82,15.67,20.52C144.69,66.54,132.39,74.67,116.83,74.67Z"/><path class="cls-1" d="M181.08,74.67c-23,0-31.23-13.19-31.23-37.38C149.85,9.42,161.75,0,180.59,0c5.35,0,10.51.6,21.32,4.07l-4.17,17.75c-9-3.47-12.29-4.47-15.86-4.47-7.54,0-10.61,1.79-10.61,19.74,0,18.74,3.07,20.23,10.61,20.23,3.86,0,8.23-1.49,17.35-5.76l4,17.75C192.59,73.68,186.83,74.67,181.08,74.67Z"/><path class="cls-1" d="M209.88,73.68V1h46.61V17.85H230.31V28.66H254.6V45.42H230.31v11.5h26.77l1,16.76Z"/><path class="cls-1" d="M267,73.68V1h20.43V56.52h22.7l1.39,17.16Z"/><path class="cls-1" d="M342.82,17.85V73.68H322.29V17.85H306.72V1h51.77V17.85Z"/><path class="cls-1" d="M393.33,74.67C372.91,74.67,362,64.46,362,37.78,362,12.2,373.2,0,393.33,0s31.34,10.61,31.34,37.38C424.67,64,413.16,74.67,393.33,74.67Zm-.1-58.21c-7.83,0-9.81,2.18-9.81,20.92,0,17.95,1.68,20.93,9.91,20.93s9.92-3,9.92-20.93C403.25,18.64,400.57,16.46,393.23,16.46Z"/></g></g></svg>
