<?xml version="1.0" encoding="utf-8"?>
<!-- Generator: Adobe Illustrator 21.0.2, SVG Export Plug-In . SVG Version: 6.00 Build 0)  -->
<svg version="1.1" id="Layer_1" xmlns="http://www.w3.org/2000/svg" xmlns:xlink="http://www.w3.org/1999/xlink" x="0px" y="0px"
	 viewBox="0 0 730 246" enable-background="new 0 0 730 246" xml:space="preserve">
<path id="Rectangle" fill="#FFFFFF" d="M-219.1-57L51.4,36.1c1.6,0.5,2.4,2.2,1.9,3.8l-93.1,270.5c-0.5,1.6-2.2,2.4-3.8,1.9
	l-270.5-93.1c-1.6-0.5-2.4-2.2-1.9-3.8l93.1-270.5C-222.3-56.7-220.6-57.6-219.1-57z"/>
<path id="Rectangle-Copy-3" fill="#FFFFFF" d="M158.4-27l82.1-64.2c1.3-1,3.2-0.8,4.2,0.5l64.2,82.1c1,1.3,0.8,3.2-0.5,4.2
	l-82.1,64.2c-1.3,1-3.2,0.8-4.2-0.5l-64.2-82.1C156.8-24.1,157.1-26,158.4-27z"/>
<path id="Rectangle-Copy-4" fill="#FFFFFF" d="M619-19.1l224.7-11.8c1.7-0.1,3.1,1.2,3.2,2.8l11.8,224.7c0.1,1.7-1.2,3.1-2.8,3.2
	l-224.7,11.8c-1.7,0.1-3.1-1.2-3.2-2.8L616.2-15.9C616.1-17.6,617.3-19,619-19.1z"/>
<path id="Rectangle-Copy" fill="#FFFFFF" d="M101.3,64.1c-0.3-1.6,0.5-2.2,1.9-1.3L314,199.7c1.4,0.9,1.2,1.9-0.4,2.3l-172.1,36.6
	c-1.6,0.3-3.2-0.7-3.6-2.3L101.3,64.1z"/>
<path id="Rectangle-Copy-2" fill="#FFFFFF" d="M526,11.6c1.5-0.6,2.3,0.1,1.6,1.6l-98.2,231.4c-0.6,1.5-1.7,1.5-2.3,0L361.1,81.4
	c-0.6-1.5,0.1-3.3,1.7-3.9L526,11.6z"/>
</svg>
