<?xml version="1.0" encoding="utf-8"?>
<!-- Generator: Adobe Illustrator 21.1.0, SVG Export Plug-In . SVG Version: 6.00 Build 0)  -->
<svg version="1.1" id="Layer_1" xmlns="http://www.w3.org/2000/svg" xmlns:xlink="http://www.w3.org/1999/xlink" x="0px" y="0px"
	 viewBox="0 0 595.2 92.7" style="enable-background:new 0 0 595.2 92.7;" xml:space="preserve">
<g id="Document" transform="scale(1 -1)">
	<g id="Spread" transform="translate(0 -595.277)">
		<g id="Layer_1_1_">
			<path marker-start="none" marker-end="none" d="M28,595.2c6.7,0,11.9-0.8,15.6-2.4c3.7-1.6,7.1-4,10.3-7.2l-9.6-9.6
				c-3.2,3.9-7.7,5.8-13.5,5.8c-5.8,0-9.5-1.4-11.1-4.1c-1.6-2.7-1.6-5.1,0-7c1.6-1.9,5.3-3.4,11.1-4.3c6.1-0.6,11.6-2.6,16.6-6
				s7.5-8.7,7.5-16.1c0-5.8-2.7-10.8-8-14.9c-5.3-4.2-11.5-6.3-18.6-6.3c-6.7,0-12.3,1-16.8,2.9c-4.5,1.9-8.3,4.5-11.6,7.7l9.6,9.6
				c3.2-3.8,8.7-6.1,16.4-6.7c6.4,0,10.4,1.4,12,4.1c1.6,2.7,1.6,5.5,0,8.2c-1.6,2.7-5.6,4.4-12,5.1c-5.8,0.6-11.1,2.4-15.9,5.3
				c-4.8,2.9-7.2,7.9-7.2,14.9c0,6.4,2.7,11.5,8.2,15.4C16.6,593.3,22.2,595.2,28,595.2z"/>
			<path marker-start="none" marker-end="none" d="M64.1,523v48.2h13.5V523H64.1z M63.6,582.7c0-1.9,0.6-3.5,1.9-4.8
				c1.3-1.3,3-1.9,5.3-1.9c2.2,0,4,0.6,5.3,1.9c1.3,1.3,1.9,2.9,1.9,4.8c0,1.9-0.6,3.5-1.9,4.8c-1.3,1.3-3.1,2-5.4,2
				c-2.2,0-3.9-0.7-5.2-2C64.2,586.3,63.6,584.6,63.6,582.7z"/>
			<path marker-start="none" marker-end="none" d="M102.2,548.1l-15.6,23h13.7l8.8-12.9l8.8,12.9h13.7l-15.6-23l17.1-25.1h-13.8
				l-10.2,15l-10.2-15H85.1L102.2,548.1z"/>
			<path marker-start="none" marker-end="none" d="M169.1,525.3c-2.3-1.5-5-2.3-7.9-2.3c-5.5,0-9.8,1.5-13,4.6
				c-3.2,3-4.8,7-4.8,11.8v20.8h-7.2v10.9h7.2v13l13.5,1.4v-14.5h7.2v-10.9h-7.2v-18.9c0-2.6,0.5-4.4,1.6-5.4c1.1-1,2.5-1.6,4.2-1.6
				c0.5,0,1.7,0.2,3.6,0.6L169.1,525.3z"/>
			<path marker-start="none" marker-end="none" d="M207.2,539.7v31.5h13.5v-44.3c0-6.7-2.1-12.4-6.3-16.9c-4.2-4.5-9.1-6.9-14.9-7.2
				l-2.9-0.3c-6.7,0.2-12.8,2.9-18.3,8l6.3,7.2c3.9-2.9,7.5-4.5,10.9-4.8c4.2,0,7.2,1,9,3.1c1.8,2.1,2.7,5.1,2.7,8.9v2.5
				c-3.4-2.9-7.3-4.4-11.8-4.4c-6.1,0-10.7,1.8-14,5.5c-3.2,3.7-4.8,7.9-4.8,12.8v29.8h13.5v-26.5c0-3.2,0.8-5.7,2.4-7.5
				c1.6-1.8,4-2.7,7.3-2.8C202.6,534.6,205,536.4,207.2,539.7z"/>
			<path marker-start="none" marker-end="none" d="M235.3,523v72.2h4.8l45.2-45.2v45.2h14.4V523h-5.3l-44.8,44.8V523H235.3z"/>
			<path marker-start="none" marker-end="none" d="M408.5,566.4h20.2c5.8,0.1,8.8,2.7,9,7.9c-0.2,4.7-3.1,7.2-8.8,7.4h-20.4V566.4z
				 M437.5,554.5l18-31.5h-16.6l-17.3,29.8h-13.2V523H394v72.2h31.5c16.8,0,25.3-6.9,25.3-20.8C450.8,564,446.4,557.4,437.5,554.5z"
				/>
			<path marker-start="none" marker-end="none" d="M459.3,595.2v-13.5h24.1V523h14.4v58.7h24.1v13.5H459.3z"/>
			<path marker-start="none" marker-end="none" d="M532.7,523v72.2h14.4v-28.9h33.6v28.9h14.4v-72.2l-14.4,0v29.8h-33.6V523H532.7z"
				/>
			<g id="Group">
				<path marker-start="none" marker-end="none" d="M313.6,545.7c-6.8,17.1,0.5,36.4,16.3,45l52.2-22.6c4.5-17.4-4.5-35.9-21.6-42.6
					C341.9,518.1,320.9,527.2,313.6,545.7z M341.8,594.7c13.5,2,27.2-3.9,35-15.1L341.8,594.7z"/>
			</g>
		</g>
	</g>
</g>
</svg>
