<?xml version="1.0" encoding="UTF-8" standalone="no"?>
<svg
   xmlns:dc="http://purl.org/dc/elements/1.1/"
   xmlns:cc="http://creativecommons.org/ns#"
   xmlns:rdf="http://www.w3.org/1999/02/22-rdf-syntax-ns#"
   xmlns:svg="http://www.w3.org/2000/svg"
   xmlns="http://www.w3.org/2000/svg"
   viewBox="0 0 303.56 223.08"
   height="223.08"
   width="303.56"
   xml:space="preserve"
   id="svg2"
   version="1.1"><metadata
     id="metadata8"><rdf:RDF><cc:Work
         rdf:about=""><dc:format>image/svg+xml</dc:format><dc:type
           rdf:resource="http://purl.org/dc/dcmitype/StillImage" /></cc:Work></rdf:RDF></metadata><defs
     id="defs6" /><g
     transform="matrix(1.3333333,0,0,-1.3333333,0,223.08)"
     id="g10"><g
       transform="scale(0.1)"
       id="g12"><path
         id="path14"
         style="fill:#484546;fill-opacity:1;fill-rule:nonzero;stroke:none"
         d="M 226.34,245.879 C 107.527,230.09 39.8516,206.781 39.8516,115.801 c 0,-64.6721 40.6093,-90.9924 107.5314,-90.9924 29.328,0 59.402,6.0234 78.957,16.543 z M 142.117,0 C 42.8594,0 0,47.3711 0,115.801 0,224.078 99.2578,257.16 226.34,269.949 v 27.821 c 0,72.941 -42.863,93.242 -98.508,93.242 -39.1015,0 -72.9375,-14.293 -93.9922,-26.321 l -11.2812,26.321 c 21.0547,12.027 63.1641,29.328 109.7854,29.328 67.676,0 132.344,-29.328 132.344,-123.32 V 28.5703 C 235.359,11.2695 192.5,0 142.117,0" /><path
         id="path16"
         style="fill:#484546;fill-opacity:1;fill-rule:nonzero;stroke:none"
         d="m 543.633,385 c -35.34,9.77 -77.449,5.262 -100.012,-11.281 V 7.51172 H 403.02 V 391.762 c 36.843,18.797 63.914,28.578 152.644,28.578 L 543.633,385" /><path
         id="path18"
         style="fill:#484546;fill-opacity:1;fill-rule:nonzero;stroke:none"
         d="M 871.465,7.51172 698.516,218.809 h -1.504 V 7.51172 H 657.91 V 597.801 h 39.102 V 220.32 h 1.504 l 159.414,192.5 h 45.117 L 736.113,219.57 918.84,7.51172 h -47.375" /><path
         id="path20"
         style="fill:#484546;fill-opacity:1;fill-rule:nonzero;stroke:none"
         d="m 1118.83,5.26172 c -68.43,0 -90.24,51.12888 -90.24,94.73828 v 288.75 h -47.367 v 24.07 h 47.367 v 97 l 40.61,15.039 V 412.82 h 75.19 V 389.512 H 1069.2 V 97.75 c 0,-33.0898 15.79,-63.918 58.65,-63.918 4.51,0 11.28,0 16.54,1.5078 V 9.01953 c -6.76,-2.25781 -15.03,-3.75781 -25.56,-3.75781" /><path
         id="path22"
         style="fill:#484546;fill-opacity:1;fill-rule:nonzero;stroke:none"
         d="m 1390.25,390.262 c -64.66,0 -115.04,-49.633 -115.04,-172.953 l 221.07,33.839 c 0,101.512 -40.61,139.114 -106.03,139.114 z M 1275.96,192.5 c 6.01,-107.5312 55.64,-160.9219 136.1,-160.9219 45.12,0 76.7,12.0313 97,24.0625 l 12.79,-29.332 C 1500.04,12.7813 1459.43,0 1411.31,0 c -97.76,0 -173.7,59.3984 -173.7,211.289 0,142.883 68.43,209.051 153.4,209.051 87.22,0 145.12,-54.899 145.12,-189.5 L 1275.96,192.5" /><path
         id="path24"
         style="fill:#484546;fill-opacity:1;fill-rule:nonzero;stroke:none"
         d="M 1875.98,7.51172 1703.03,218.809 h -1.51 V 7.51172 h -39.1 V 597.801 h 39.1 V 220.32 h 1.51 l 159.41,192.5 h 45.12 L 1740.63,219.57 1923.35,7.51172 h -47.37" /><path
         id="path26"
         style="fill:#484546;fill-opacity:1;fill-rule:nonzero;stroke:none"
         d="M 2229.37,7.51172 2056.42,218.809 h -1.51 V 7.51172 h -39.1 V 597.801 h 39.1 V 220.32 h 1.51 l 159.41,192.5 h 45.12 L 2094.01,219.57 2276.74,7.51172 h -47.37" /><path
         id="path28"
         style="fill:#231f20;fill-opacity:1;fill-rule:nonzero;stroke:none"
         d="m 1321.36,1028.87 c 0,53 -0.11,132.04 -0.16,190.25 -0.04,17.13 -0.04,32.52 -0.04,44.82 46.46,10.14 90.48,31.12 128.11,61.9 25.14,20.55 47.46,45.46 65.61,74.55 l -105.5,65.88 c -22.3,-35.7 -55.05,-60.81 -91.81,-74.09 l -0.8,26.57 c -24.25,144.38 -149.73,254.43 -301.02,254.38 -41.348,0 -80.699,-8.32 -116.68,-23.21 l 21.528,-43.09 34.382,-68.8 c 19.004,6.81 39.407,10.7 60.77,10.7 99.91,0 180.94,-80.99 180.94,-180.95 0,-43.56 0.07,-79.96 0.13,-110.26 -17.99,13.23 -37.62,24.64 -58.81,33.88 -6.85,3.01 -13.83,5.79 -20.99,8.31 -55.04,19.35 -111.89,21.97 -165.055,10.59 -75.844,-16.27 -144.106,-61.14 -188.789,-126.91 -14.492,-21.36 -26.543,-44.91 -35.531,-70.42 -32.887,-93.57 -17.54,-192.368 33.046,-269.302 l 0.129,-0.117 c 26.153,-42.785 54.446,-74.453 105.371,-100.168 l -0.476,-1.336 c 43.648,-23.957 93.75,-37.629 147.035,-37.629 46.68,0 90.82,10.539 130.39,29.219 22.58,10.683 43.69,23.976 62.83,39.601 3.44,2.793 6.82,5.672 10.13,8.621 -6.45,6.672 -12.69,13.555 -18.53,20.782 -20.69,25.597 -37.17,54.718 -48.79,86.203 -0.17,-0.188 -0.34,-0.371 -0.51,-0.528 -33.07,-36.125 -80.46,-58.906 -133.28,-58.906 -20.967,0 -41.025,3.738 -59.748,10.293 -70.547,24.715 -121.219,91.699 -121.219,170.677 0,27.86 6.457,54.13 17.715,77.68 0.274,0.62 0.575,1.22 0.867,1.83 1.34,2.75 2.844,5.43 4.336,8.11 0.586,1.09 1.106,2.2 1.743,3.29 1.531,2.67 3.132,5.3 4.793,7.91 0.949,1.4 1.894,2.85 2.871,4.25 45.039,66.18 130.332,96.7 209.412,68.9 75.03,-26.45 122.77,-95.21 121.94,-170.58 l -0.03,-2.5 c 4.11,-65.055 28.61,-124.579 67.14,-172.262 44.25,-54.738 107.05,-93.762 178.85,-107.735 18.99,-3.703 38.58,-5.753 58.65,-5.753 v 124.394 c -99.94,0 -180.92,81.016 -180.95,180.956" /></g></g></svg>