<?xml version="1.0" encoding="utf-8"?>
<!-- Generator: Adobe Illustrator 21.0.2, SVG Export Plug-In . SVG Version: 6.00 Build 0)  -->
<svg version="1.1" id="Layer_1" xmlns="http://www.w3.org/2000/svg" xmlns:xlink="http://www.w3.org/1999/xlink" x="0px" y="0px"
	 viewBox="0 0 442 408.5" enable-background="new 0 0 442 408.5" xml:space="preserve">
<g>
	<path fill="#1A1A1A" d="M71.6,128.9c-30.6,0-53.5-22.8-53.5-53.9S41,21.1,71.6,21.1s53.5,22.8,53.5,53.9S102.2,128.9,71.6,128.9z
		 M71.6,30.6c-26.4,0-42.2,20.7-42.2,44.4s15.8,44.4,42.2,44.4s42.2-20.7,42.2-44.4S98,30.6,71.6,30.6z"/>
	<path fill="#1A1A1A" d="M178.4,74.6c-2.9-5.5-7.7-9.1-14.6-9.1c-6.7,0-14.1,2.9-14.1,10.1c0,6.4,4.5,8.7,13.3,10.7l9.7,2.3
		c9.4,2.2,16.5,9,16.5,18.6c0,14.8-13.2,20.9-26.4,20.9c-10.3,0-19.7-3.6-26.1-13.2l8.3-5.7c3.9,6.1,9.9,10.1,17.8,10.1
		c7.8,0,15.9-3.5,15.9-11.3c0-6.8-5.8-9.1-12.9-10.9l-9.3-2.2c-4.6-1.2-17.4-4.9-17.4-17.8c0-14.1,12.3-20.4,25.1-20.4
		c9.4,0,18.3,3.3,22.6,12.2L178.4,74.6z"/>
	<path fill="#1A1A1A" d="M216,126.3h-9.6V16.7h9.6V126.3z"/>
	<path fill="#1A1A1A" d="M271.5,128.1c-21,0-36-15.2-36-35.7s14.9-35.7,36-35.7c21.2,0,36.1,15.2,36.1,35.7S292.7,128.1,271.5,128.1
		z M271.5,65.4c-15.7,0-25.5,11.7-25.5,27s9.9,27,25.5,27c15.8,0,25.7-11.7,25.7-27S287.3,65.4,271.5,65.4z"/>
</g>
<path fill="#1A1A1A" d="M215.9,248.6h54.9v9.6h-65.4V155.5h63.6v9.6h-53.2v34.9h49.7v9.6h-49.7V248.6z"/>
<path fill="#1A1A1A" d="M299.7,258.2h-9.6V148.6h9.6V258.2z"/>
<path fill="#1A1A1A" d="M322.7,205.4c0-5.1-0.4-10-0.7-15.1h10.3v10.3h0.3c4.6-7.8,13.8-12,21.9-12c7.4,0,17.1,2.5,21.6,14.1
	c3.9-8.7,13.2-14.1,22.3-14.1c17.3,0,25.5,9.7,25.5,26.5v43.1h-9.6v-39.6c0-13.8-3.9-21.3-17.1-21.3c-14.2,0-19.1,12.2-19.1,24.8
	v36.1h-9.6v-39.6c0-13.8-3.9-21.3-17.1-21.3c-2.3,0-19.1,1.3-19.1,26.1v34.8h-9.6V205.4z"/>
<path fill="#1A1A1A" d="M72.8,254.3h34.1c25.7,0,53.9,17.1,53.9,51.3c0,34.2-28.3,51.3-53.9,51.3H72.8V254.3z M83.2,347.4h20.3
	c31.3,0,46-20.6,46-41.8c0-21.2-14.6-41.8-46-41.8H83.2V347.4z"/>
<path fill="#1A1A1A" d="M221.7,315.4v-1.7c0-11.7-5.7-17.5-17.4-17.5c-8,0-14.9,2.8-20.7,8l-5.8-6.8c6.2-6.4,15.9-9.9,28.7-9.9
	c13.3,0,24.8,7.5,24.8,24.1v30.3c0,5.2,0.6,11.6,1.2,15.2h-9.3c-0.6-3.3-0.9-7.4-0.9-11H222c-5.5,9-13,12.8-23.9,12.8
	c-12,0-23.3-6.7-23.3-19.9c0-22,26-23.5,42.2-23.5H221.7z M216.8,323.2c-9.7,0-31.6,0.7-31.6,14.4c0,9,8.3,12.5,15.9,12.5
	c13.9,0,20.6-9.9,20.6-21.9v-4.9H216.8z"/>
<path fill="#1A1A1A" d="M278.7,345.2l20.7-56.1H311l-33.9,85.5c-4.1,10.4-9.6,17.1-21.3,17.1c-2.9,0-5.9-0.1-8.8-1l1-9.3
	c2.2,1.2,4.6,1.6,7.2,1.6c6.7,0,10.1-4.5,13-12.2l4.9-13l-27.8-68.7h12L278.7,345.2z"/>
</svg>
