<?xml version="1.0" encoding="utf-8"?>
<!-- Generator: Adobe Illustrator 21.0.2, SVG Export Plug-In . SVG Version: 6.00 Build 0)  -->
<svg version="1.1" id="Layer_1" xmlns="http://www.w3.org/2000/svg" xmlns:xlink="http://www.w3.org/1999/xlink" x="0px" y="0px"
	 viewBox="0 0 592.8 105.4" style="enable-background:new 0 0 592.8 105.4;" xml:space="preserve">
<g>
	<path d="M174.9,105.2c-14.4,0-24.5-7.2-24.5-22.3V23.7c0-14.3,8.6-23.2,23.1-23.2h44.9v15.2h-39.6c-8.2,0-13.2,3.1-13.2,11.8v17.9
		h44.7v15.1h-44.7V78c0,8.8,5,11.9,13.3,11.9h39.4v15.2h-43.4V105.2z"/>
	<path d="M339.1,15.7c-10.3,0-13.3,3.6-13.3,10c0,2.3,0,5.1,0,8.2c0,3.3,0.9,6.3,3.6,8.5c3,2.4,6.1,2.4,9.7,2.4h13.2
		c13.5,0,26.1,7.5,26.1,21.5v16.6c0,14.8-9.8,22.3-24.1,22.3h-42.2V90h37.6c14.6,0,13.2-7.7,13.2-19.3c0-8.5-5-10.7-12.7-10.7H334
		c-12.7,0-23.6-8.4-23.6-22V22.7c0-6.8,2.6-13,7.7-17.5c3.9-3.3,9.5-4.7,15.5-4.7h39.9v15.2H339.1z"/>
	<path d="M419.1,15.7v89.5h-15.2V15.7h-23.2V0.5h61.6v15.2H419.1z"/>
	<path d="M293.3,48.6c7.6,3.6,11.3,10.4,11.3,20.8v11.8c0,14.6-7.4,24-22.5,24h-52.6V0.5h37.6l7.4,0.2c15,0,22.3,9.6,22.3,23.7V34
		c0,6.5-0.6,10.8-3.4,14.5L293.3,48.6z M471.1,105.2c-14.4,0-24.5-7.2-24.5-22.3V23.7c0-14.3,8.6-23.2,23.1-23.2h44.9v15.2H475
		c-8.2,0-13.2,3.1-13.2,11.8v17.9h44.7v15.1h-44.7V78c0,8.8,5,11.9,13.3,11.9h39.4v15.2h-43.4V105.2z M244.7,15.7v29.7h24.7
		c7.2,0,12.1-2.9,12.1-10.6V27c0-8-5.2-11.3-12.6-11.3H244.7z M289.4,72.1c0-7.7-4.2-11.5-11.8-11.6h-32.8V90h32.8
		c7.4,0.2,11.8-3.1,11.8-10.8V72.1z"/>
	<path d="M525.7,15.7V0.5h43.7c12.7,0,23.1,7.1,23.2,20.6c0.2,7.5,0.2,9.9,0.2,17.4c0,14-8.6,22.5-22.6,22.5h-29.3v44.3h-15.2V45.4
		H565c8.3,0,12.6-0.8,12.6-9.4v-9.7c0-7.2-5.7-10.5-12.2-10.5L525.7,15.7z"/>
	<path d="M130.2,0.5l-18,78.2l-0.8,6.5l-0.7-6.7L96.2,11.4C94.9,4.8,91.4,0,84,0l0,0c-7.4,0-10.9,4.8-12.2,11.4L57.3,78.5l-0.8,6.6
		l-0.7-6.5L42.3,20.2C39.5,7.1,30.7,0.5,17.3,0.5H0v14.8h16.9c5.2,0,9.5,3.6,10.6,8.4l16.2,70.5c1.4,6,5.8,11.1,12.4,11.1
		c6.6,0,11.7-4.1,12.9-10.2l14.4-66.8l0.6-4.7l0.5,4.8l14.4,66.8c1.3,6.1,6.3,10.2,12.9,10.2c6.6,0,10.9-5.2,12.4-11.1l21.6-93.7
		L130.2,0.5L130.2,0.5z"/>
</g>
</svg>
